<?xml version="1.0" encoding="UTF-8" standalone="no"?>
<!DOCTYPE svg PUBLIC "-//W3C//DTD SVG 1.1//EN" "http://www.w3.org/Graphics/SVG/1.1/DTD/svg11.dtd">
<svg width="100%" height="100%" viewBox="0 0 1000 1000" version="1.1" xmlns="http://www.w3.org/2000/svg" xmlns:xlink="http://www.w3.org/1999/xlink" xml:space="preserve" xmlns:serif="http://www.serif.com/" style="fill-rule:evenodd;clip-rule:evenodd;stroke-linejoin:round;stroke-miterlimit:2;">
    <g transform="matrix(1,0,0,1,-1328.52,4071.48)">
        <g id="Blue">
        </g>
        <g id="white">
        </g>
        <g id="Transparent-black-text" serif:id="Transparent black text">
        </g>
        <g id="Transparent-blue" serif:id="Transparent blue">
        </g>
        <g id="Transparent-white" serif:id="Transparent white" transform="matrix(1,0,0,1,1328.52,-4071.48)">
            <rect id="default" x="0" y="0" width="1000" height="1000" style="fill:none;"/>
            <g id="default1" serif:id="default">
                <g id="bee" transform="matrix(0.247568,-6.54665e-33,-2.70649e-33,-0.247568,-133.822,1070.17)">
                    <g transform="matrix(6.13905,-1.14472e-31,-3.62866e-32,-6.13905,1185.3,4134.86)">
                        <path d="M223.959,39.988C279.717,39.988 324.985,85.256 324.985,141.013C324.985,196.771 279.717,140.429 223.959,140.429C168.202,140.429 122.934,196.771 122.934,141.013C122.934,85.256 168.202,39.988 223.959,39.988Z" style="fill:white;"/>
                    </g>
                    <g transform="matrix(2.92993,2.78054,2.78054,-2.92993,687.084,3287.17)">
                        <path d="M364.113,61.654C362.714,50.608 379.436,44.687 385.422,55.305C393.494,69.622 396.884,92.791 396.884,117.548C396.884,130.916 395.036,141.247 392.163,151.801C387.708,168.163 382.302,181.662 373.596,191.04C370.474,194.403 355.736,190.26 357.359,182.732C360.267,169.234 371.475,145.43 371.475,117.752C371.475,93.116 365.977,76.379 364.113,61.654Z" style="fill:white;"/>
                    </g>
                    <g transform="matrix(-2.80477,3.31674,-3.08432,-2.60823,4462.88,3006.01)">
                        <path d="M364.113,61.654C362.714,50.608 379.436,44.687 385.422,55.305C393.494,69.622 397.694,90.982 397.694,115.74C397.694,129.107 395.036,141.247 392.163,151.801C387.708,168.163 382.302,181.662 373.596,191.04C370.474,194.403 355.736,190.26 357.359,182.732C360.267,169.234 374.036,139.263 374.036,111.585C374.036,86.95 365.977,76.379 364.113,61.654Z" style="fill:white;"/>
                    </g>
                    <path d="M1618,2836C1219,2680 869,2539 842,2521C562,2342 517,1935 751,1700C919,1533 1164,1491 1376,1595C1438,1625 1528,1704 1570,1764C1599,1808 2360,3108 2360,3116C2360,3118 2357,3120 2353,3120C2348,3119 2018,2992 1618,2836Z" style="fill:white;fill-rule:nonzero;"/>
                    <path d="M2760,3116C2760,3114 2937,2808 3152,2438C3514,1818 3550,1759 3615,1694C3721,1587 3833,1540 3984,1540C4284,1540 4519,1773 4520,2070C4520,2255 4420,2436 4269,2527C4239,2545 3897,2683 3509,2833C2768,3121 2760,3124 2760,3116Z" style="fill:white;fill-rule:nonzero;"/>
                    <g transform="matrix(20.3074,1.37116e-31,-5.01859e-32,-31.9384,-2675.46,8983.42)">
                        <path d="M276,204.04C276,201.923 272.353,198.485 269.429,195.712C269.429,195.712 262.072,189.046 257.745,189.008C253.419,188.971 246.425,195.085 246.425,195.085C242.641,198.434 239.557,201.923 239.557,204.04C239.557,206.158 242.217,206.724 245.547,206.724L269.754,206.733C273.085,206.733 276,206.158 276,204.04Z" style="fill:white;"/>
                    </g>
                    <g transform="matrix(20.3074,-8.94443e-31,3.27376e-31,31.9384,-2675.46,-5684.57)">
                        <path d="M276,204.04C276,201.923 272.353,198.485 269.429,195.712C269.429,195.712 262.072,189.046 257.745,189.008C253.419,188.971 246.425,195.085 246.425,195.085C242.641,198.434 239.557,201.923 239.557,204.04C239.557,206.158 242.217,206.724 245.547,206.724L269.754,206.733C273.085,206.733 276,206.158 276,204.04Z" style="fill:white;"/>
                    </g>
                    <g transform="matrix(36.0797,2.4361e-31,-6.14916e-32,-39.1334,-6741.21,10075.6)">
                        <path d="M276,204.04C276,201.923 274.135,200.204 271.838,200.204L243.719,200.204C241.422,200.204 239.557,201.923 239.557,204.04C239.557,206.158 241.422,207.877 243.719,207.877L271.838,207.877C274.135,207.877 276,206.158 276,204.04Z" style="fill:white;"/>
                    </g>
                    <g transform="matrix(36.0797,2.4361e-31,-6.14916e-32,-39.1334,-6741.21,9193.73)">
                        <path d="M276,204.04C276,201.923 274.135,200.204 271.838,200.204L243.719,200.204C241.422,200.204 239.557,201.923 239.557,204.04C239.557,206.158 241.422,207.877 243.719,207.877L271.838,207.877C274.135,207.877 276,206.158 276,204.04Z" style="fill:white;"/>
                    </g>
                    <g transform="matrix(48.1084,3.24828e-31,-6.14916e-32,-39.1334,-9841.12,9634.67)">
                        <path d="M276,204.04C276,201.923 274.601,200.204 272.879,200.204L242.678,200.204C240.956,200.204 239.557,201.923 239.557,204.04C239.557,206.158 240.956,207.877 242.678,207.877L272.879,207.877C274.601,207.877 276,206.158 276,204.04Z" style="fill:white;"/>
                    </g>
                </g>
            </g>
        </g>
        <g id="Transparent-black" serif:id="Transparent black">
        </g>
    </g>
</svg>
